<?xml version="1.0" encoding="UTF-8"?>
<svg xmlns="http://www.w3.org/2000/svg" viewBox="0 -2728 13211 3408" preserveAspectRatio="xMidYMid meet">
  <title>WorkCrew wordmark — Inter Medium 500, optical kerning -15, custom pair adjustments</title>
  <g transform="scale(1, -1)" fill="#F4EDE0">
    <path d="M534 0H838L1150 1109H1173L1485 0H1790L2241 1536H1932L1633 413H1618L1318 1536H1009L707 408H692L391 1536H82Z" transform="translate(0, 0)"/>
    <path d="M848 -31C1281 -31 1564 286 1564 761C1564 1239 1281 1556 848 1556C415 1556 132 1239 132 761C132 286 415 -31 848 -31ZM849 220C566 220 434 467 434 762C434 1056 566 1306 849 1306C1130 1306 1262 1056 1262 762C1262 467 1130 220 849 220Z" transform="translate(2308, 0)"/>
    <path d="M201 0H500V938C500 1139 655 1284 867 1284C929 1284 999 1273 1023 1266V1552C993 1556 934 1559 896 1559C716 1559 562 1457 506 1292H490V1536H201Z" transform="translate(3989, 0)"/>
    <path d="M201 0H500V545L649 694L1171 0H1538L874 877L1496 1536H1138L526 886H500V2048H201Z" transform="translate(5051, 0)"/>
    <path d="M848 -31C1211 -31 1446 187 1479 486H1188C1150 320 1021 222 850 222C597 222 434 433 434 768C434 1097 600 1304 850 1304C1040 1304 1156 1184 1188 1040H1479C1447 1350 1194 1556 845 1556C412 1556 132 1230 132 761C132 298 402 -31 848 -31Z" transform="translate(6603, 0)"/>
    <path d="M201 0H500V938C500 1139 655 1284 867 1284C929 1284 999 1273 1023 1266V1552C993 1556 934 1559 896 1559C716 1559 562 1457 506 1292H490V1536H201Z" transform="translate(8187, 0)"/>
    <path d="M863 -31C1198 -31 1435 134 1503 384L1220 435C1166 290 1036 216 866 216C610 216 438 382 430 678H1522V784C1522 1339 1190 1556 842 1556C414 1556 132 1230 132 758C132 281 410 -31 863 -31ZM431 902C443 1120 601 1309 844 1309C1076 1309 1228 1137 1229 902Z" transform="translate(9254, 0)"/>
    <path d="M534 0H838L1150 1109H1173L1485 0H1790L2241 1536H1932L1633 413H1618L1318 1536H1009L707 408H692L391 1536H82Z" transform="translate(10888, 0)"/>
  </g>
</svg>